Coordinates
version=1
nRows=13
nColumns=36
inDegrees=yes

Units are S.I. units (second, meters, Newtons, ...)
If the header above contains a line with 'inDegrees', this indicates whether rotational values are in degrees (yes) or radians (no).

endheader
time	pelvis_tilt	pelvis_list	pelvis_rotation	pelvis_tx	pelvis_ty	pelvis_tz	hip_flexion_r	hip_adduction_r	hip_rotation_r	knee_angle_r	knee_angle_r_beta	ankle_angle_r	subtalar_angle_r	mtp_angle_r	hip_flexion_l	hip_adduction_l	hip_rotation_l	knee_angle_l	knee_angle_l_beta	ankle_angle_l	subtalar_angle_l	mtp_angle_l	lumbar_extension	lumbar_bending	lumbar_rotation	arm_flex_r	arm_add_r	arm_rot_r	elbow_flex_r	pro_sup_r	arm_flex_l	arm_add_l	arm_rot_l	elbow_flex_l	pro_sup_l
      5.40000000	    -23.30247218	      3.68206881	     -0.92727721	      0.00046998	      0.38705245	     -0.05285038	    119.73395582	    -23.85765572	     17.40107394	    139.93879873	      2.44239279	     45.88715827	      8.56874746	     -7.49999987	    119.86672697	    -29.65478698	     13.42942367	    139.84887200	      2.44082327	     38.76873432	      6.07443584	     -7.49999987	    -24.45773545	     -3.42969930	      0.63104124	     86.36109398	      8.28258125	     77.16283316	    127.83938305	     97.24888537	     91.69358853	      9.63751501	     75.72208154	    131.09273416	     84.63719672
      5.41666670	    -23.21607713	      3.40857122	     -0.68842933	     -0.00516311	      0.39268611	     -0.05348919	    119.67970008	    -23.69119368	     16.58262712	    139.85705356	      2.44096607	     45.39364059	      9.12428119	     -7.49999987	    119.83459768	    -29.12681663	     13.05887417	    139.27378713	      2.43078615	     38.18847001	      6.45337344	     -7.49999987	    -23.99701557	     -3.22700433	      0.54709771	     86.73214651	      8.08131613	     75.74298691	    127.78335154	     93.05203179	     92.37692387	      9.75216386	     74.84932517	    131.00129048	     81.85150330
      5.43333330	    -24.44629235	      3.23466445	     -0.48418864	     -0.00730241	      0.40286146	     -0.04941306	    119.60369302	    -23.04973784	     14.43266052	    138.39929312	      2.41552335	     44.23409615	      7.48147461	     -7.49999987	    119.76833252	    -28.72119711	     11.84278704	    137.22737544	      2.39506953	     37.05869539	      5.35187193	     -7.49999987	    -22.61254886	     -3.18661761	      0.74037960	     86.98672180	      7.94104546	     75.03891401	    127.51324048	     95.81125522	     92.74956921	      9.78434045	     74.54663065	    130.85382020	     83.39890907
      5.45000000	    -26.83702496	      2.73972246	     -0.45855502	     -0.01426119	      0.42027346	     -0.04513524	    119.07737674	    -21.48974093	     10.85687902	    134.87580495	      2.35402688	     42.24288981	      3.63874543	     -7.49999987	    119.65813437	    -28.23995958	      9.79406643	    133.61959265	      2.33210184	     36.24897439	      3.86154717	     -7.49999987	    -20.85857591	     -2.96302950	      1.22824524	     87.11464368	      7.59579855	     74.94147070	    127.45365378	     93.71712269	     92.96277428	      9.87042511	     74.91002415	    130.91122378	     82.31683001
      5.46666670	    -28.10153772	      1.54474276	     -0.62421541	     -0.01793602	      0.43637919	     -0.04323633	    117.07036210	    -20.06233995	      7.22356755	    131.44687965	      2.29418084	     40.90181396	      0.41498653	     -7.49999987	    119.27913062	    -27.75108493	      9.23548951	    130.31998737	      2.27451286	     35.42897150	      3.00421150	     -7.49999987	    -20.07200753	     -1.88073941	      1.84924919	     87.44647022	      7.44132769	     74.40790470	    127.04753226	     96.70809560	     93.52850679	      9.60874726	     74.71284518	    130.60420773	     84.79177988
      5.48333330	    -27.92375617	      0.75817637	     -0.74622190	     -0.03056051	      0.45119759	     -0.04667306	    114.85976394	    -18.94990315	      5.00516105	    128.13130059	      2.23631307	     39.40511663	     -2.26142678	     -7.49999987	    117.66610864	    -26.54651635	      8.38681846	    127.51150369	      2.22549557	     34.76712779	      1.91025425	     -7.49999987	    -21.40392073	     -0.80254741	      1.75973777	     89.36169003	      7.79343557	     73.81404387	    126.87287891	     95.29021353	     95.74740163	      9.10664334	     73.51506307	    130.39280457	     84.06149345
      5.50000000	    -26.92095144	      0.63449358	     -0.37728994	     -0.02908762	      0.46757189	     -0.04511149	    111.98197424	    -18.17528026	      4.21877631	    125.42606510	      2.18909780	     38.66117942	     -3.93228558	     -7.49999987	    114.37887881	    -25.40854269	      7.05231871	    124.90640665	      2.18002805	     33.92268494	      0.52522020	     -7.49999987	    -23.39025140	     -0.50527280	      1.31559643	     90.93238173	      7.51961608	     72.13992163	    126.88106445	     94.86731563	     97.59724243	      8.90604818	     72.51130962	    130.21628985	     83.82813869
      5.51666670	    -26.59569040	      0.85664253	     -0.07215237	     -0.03275414	      0.48415290	     -0.04850778	    109.71771343	    -17.72814372	      3.83489181	    122.46077251	      2.13734368	     38.05931629	     -5.45944953	     -7.49999987	    111.64674903	    -23.95217426	      5.55567216	    122.41153149	      2.13648427	     33.47736388	     -0.62948855	     -7.49999987	    -24.73059371	     -0.24924913	      0.92555921	     92.66932667	      7.40055350	     70.17527577	    126.69884463	     95.02682570	     99.59963983	      8.76746771	     71.43167394	    130.32344137	     83.92402101
      5.53333330	    -25.95984523	      0.98107639	      0.01600038	     -0.03770159	      0.50115006	     -0.04471803	    107.48602649	    -16.91779761	      3.29189655	    119.89584571	      2.09257727	     37.25415409	     -6.64251321	     -7.49999987	    108.97917738	    -22.96832932	      4.56021497	    119.83227483	      2.09146775	     32.69883188	     -1.75135540	     -7.49999987	    -26.12553596	     -0.29785322	      0.79859277	     94.38491170	      7.00343274	     67.86253024	    126.41382053	     95.02572411	    101.35654253	      8.66955795	     70.40686441	    130.13170566	     83.94000591
      5.55000000	    -26.01396659	      1.14652437	      0.28945012	     -0.03895635	      0.51622359	     -0.04545482	    105.78983003	    -16.42193712	      2.81428380	    117.38525172	      2.04875914	     36.66624361	     -7.95751757	     -7.49999987	    106.76149064	    -21.93359051	      3.57084037	    117.28937515	      2.04708577	     32.30237303	     -2.49942548	     -7.49999987	    -26.62530576	     -0.10677284	      0.94999852	     95.42973746	      6.02657435	     65.05665551	    125.80092277	     94.36603755	    102.41286719	      8.77001792	     69.77475359	    130.32566303	     83.61829581
      5.56666670	    -25.73272341	      1.24696039	      0.50630663	     -0.04080144	      0.53559458	     -0.04245169	    103.35722234	    -15.49578197	      2.32905955	    114.54587186	      1.99920261	     35.41692746	     -9.79045102	     -7.49999987	    104.12101853	    -21.18594342	      2.66773638	    114.34451293	      1.99568823	     31.48731923	     -3.18180761	     -7.49999987	    -27.59771027	     -0.37600414	      0.78179982	     95.91726385	      5.71093950	     62.20909694	    125.97566129	     94.27286144	    103.59325581	      9.10863758	     69.75620866	    130.76900702	     83.71313939
      5.58333330	    -25.51090704	      1.40852788	      0.66616230	     -0.04103738	      0.55126858	     -0.04232424	    101.26558186	    -14.85758130	      2.02873113	    111.99774375	      1.95472938	     34.22731313	    -11.47290168	     -7.49999987	    101.46750743	    -20.59827281	      1.71231451	    111.44507267	      1.94508345	     31.42018245	     -3.38983568	     -7.49999987	    -27.77521941	     -0.41133976	      0.73997125	     95.91350078	      5.51963751	     61.15293243	    125.84567181	     93.69289304	    103.60957915	      9.21643966	     69.92228673	    131.34647835	     83.47033171
      5.60000000	    -25.30144272	      1.38616101	      0.92162151	     -0.03997571	      0.56654577	     -0.04167027	     99.18425172	    -14.60071900	      1.58217121	    109.79388128	      1.91626473	     33.42242246	    -12.20496631	     -7.49999987	     99.17066713	    -20.19457365	      0.82758343	    108.78305369	      1.89862246	     31.04049136	     -3.65208086	     -7.49999987	    -27.48558173	     -0.33214126	      0.68737816	     95.16638428	      5.88027686	     61.62483343	    126.32259555	     93.74006861	    102.63442558	      9.52623490	     70.44247636	    131.90310831	     83.53441258
